<?xml version="1.0" encoding="utf-8"?>
<!-- Generator: Adobe Illustrator 25.2.3, SVG Export Plug-In . SVG Version: 6.00 Build 0)  -->
<svg version="1.1" id="圖層_1" xmlns="http://www.w3.org/2000/svg" xmlns:xlink="http://www.w3.org/1999/xlink" x="0px" y="0px"
	 viewBox="0 0 100 100" style="enable-background:new 0 0 100 100;" xml:space="preserve">
<style type="text/css">
	.st0{fill:url(#SVGID_1_);}
	.st1{fill:url(#SVGID_2_);}
	.st2{fill:url(#SVGID_3_);}
	.st3{fill:url(#SVGID_4_);}
	.st4{fill:url(#SVGID_5_);}
	.st5{fill:url(#SVGID_6_);}
	.st6{fill:#E18400;}
	.st7{fill:#E99C00;}
	.st8{fill:#F0B400;}
	.st9{fill:#F8CC00;}
	.st10{fill:#FFE400;}
</style>
<radialGradient id="SVGID_1_" cx="-625.3082" cy="431.4741" r="1" gradientTransform="matrix(94.4433 0 0 -94.4433 59105.707 40755.2305)" gradientUnits="userSpaceOnUse">
	<stop  offset="0" style="stop-color:#FDFB45"/>
	<stop  offset="0.4156" style="stop-color:#BB6000"/>
	<stop  offset="0.734" style="stop-color:#FDFB45"/>
	<stop  offset="0.9997" style="stop-color:#BB6000"/>
</radialGradient>
<path class="st0" d="M50,100c27.6,0,50-22.4,50-50c0-27.6-22.4-50-50-50S0,22.4,0,50C0,77.6,22.4,100,50,100z"/>
<radialGradient id="SVGID_2_" cx="-624.9559" cy="431.2885" r="1" gradientTransform="matrix(89.7211 0 0 -89.7211 56121.3008 38703.3047)" gradientUnits="userSpaceOnUse">
	<stop  offset="0" style="stop-color:#FDFB45"/>
	<stop  offset="1" style="stop-color:#FF9600"/>
</radialGradient>
<path class="st1" d="M50,97.5c26.2,0,47.5-21.3,47.5-47.5S76.2,2.5,50,2.5S2.5,23.8,2.5,50S23.8,97.5,50,97.5z"/>
<radialGradient id="SVGID_3_" cx="-622.4402" cy="429.963" r="1" gradientTransform="matrix(66.1103 0 0 -66.1103 41199.3906 28443.7559)" gradientUnits="userSpaceOnUse">
	<stop  offset="0" style="stop-color:#E18400"/>
	<stop  offset="0.177" style="stop-color:#E18601"/>
	<stop  offset="0.2408" style="stop-color:#E38D05"/>
	<stop  offset="0.2863" style="stop-color:#E6980C"/>
	<stop  offset="0.3231" style="stop-color:#EAA916"/>
	<stop  offset="0.3545" style="stop-color:#EFBF22"/>
	<stop  offset="0.3819" style="stop-color:#F5DA32"/>
	<stop  offset="0.4065" style="stop-color:#FDF944"/>
	<stop  offset="0.4077" style="stop-color:#FDFB45"/>
	<stop  offset="0.4951" style="stop-color:#FDF943"/>
	<stop  offset="0.5311" style="stop-color:#FDF23D"/>
	<stop  offset="0.5575" style="stop-color:#FEE633"/>
	<stop  offset="0.5794" style="stop-color:#FED425"/>
	<stop  offset="0.5981" style="stop-color:#FEBE12"/>
	<stop  offset="0.6116" style="stop-color:#FFA800"/>
	<stop  offset="0.9338" style="stop-color:#FFE300"/>
	<stop  offset="1" style="stop-color:#FFA800"/>
</radialGradient>
<path class="st2" d="M50,85c19.3,0,35-15.7,35-35c0-19.3-15.7-35-35-35S15,30.7,15,50C15,69.3,30.7,85,50,85z"/>
<radialGradient id="SVGID_4_" cx="-621.8608" cy="429.6577" r="1" gradientTransform="matrix(62.3326 0 0 -62.3326 38811.9023 26802.2422)" gradientUnits="userSpaceOnUse">
	<stop  offset="0" style="stop-color:#FFE300"/>
	<stop  offset="1" style="stop-color:#FFA800"/>
</radialGradient>
<path class="st3" d="M50,83c18.2,0,33-14.8,33-33S68.2,17,50,17S17,31.8,17,50S31.8,83,50,83z"/>
<radialGradient id="SVGID_5_" cx="-621.8608" cy="429.6577" r="1" gradientTransform="matrix(62.3326 0 0 -62.3326 38811.9023 26802.2422)" gradientUnits="userSpaceOnUse">
	<stop  offset="0" style="stop-color:#FFE300"/>
	<stop  offset="1" style="stop-color:#FFA800"/>
</radialGradient>
<path class="st4" d="M50,83c18.2,0,33-14.8,33-33S68.2,17,50,17S17,31.8,17,50S31.8,83,50,83z"/>
<radialGradient id="SVGID_6_" cx="-621.8608" cy="429.6577" r="1" gradientTransform="matrix(62.3326 0 0 -62.3326 38811.9023 26802.2422)" gradientUnits="userSpaceOnUse">
	<stop  offset="0" style="stop-color:#FFE300"/>
	<stop  offset="9.576999e-02" style="stop-color:#FFD900"/>
	<stop  offset="0.4736" style="stop-color:#FFB900"/>
	<stop  offset="0.7885" style="stop-color:#FFA400"/>
	<stop  offset="1" style="stop-color:#FF9D00"/>
</radialGradient>
<path class="st5" d="M50,83c18.2,0,33-14.8,33-33S68.2,17,50,17S17,31.8,17,50S31.8,83,50,83z"/>
<path class="st6" d="M65.1,30.9c-3.4-0.3-4.8,4.1-6.4,6.5c-2,2.9-3.4,6.7-5.1,9.7c-1.2,2.1-3.5,6.7-6.3,7c-3.4,0.5-6.6-4.4-9.2-6
	c-3.7-2.2-8.9-0.2-7.8,4.9c1.3,6,7.2,7.8,12,10.3c12.5,6.6,18.6-7.7,23.3-16.5c1.6-2.9,4.3-7.7,4.3-11c0-1.7-1.6-3.6-3.1-4.4
	C66.2,31.1,65.7,30.9,65.1,30.9z"/>
<path class="st7" d="M65.1,31.9c-3.4-0.3-4.8,4.1-6.4,6.5c-2,2.9-3.4,6.7-5.1,9.7c-1.2,2.1-3.5,6.7-6.3,7c-3.4,0.5-6.6-4.4-9.2-6
	c-3.7-2.2-8.9-0.2-7.8,4.9c1.3,6,7.2,7.8,12,10.3c12.5,6.6,18.6-7.7,23.3-16.5c1.6-2.9,4.3-7.7,4.3-11c0-1.7-1.6-3.6-3.1-4.4
	C66.2,32.1,65.7,31.9,65.1,31.9z"/>
<path class="st8" d="M65.1,34.9c-3.4-0.3-4.8,4.1-6.4,6.5c-2,2.9-3.4,6.7-5.1,9.7c-1.2,2.1-3.5,6.7-6.3,7c-3.4,0.5-6.6-4.4-9.2-6
	c-3.7-2.2-8.9-0.2-7.8,4.9c1.3,6,7.2,7.8,12,10.3c12.5,6.6,18.6-7.7,23.3-16.5c1.6-2.9,4.3-7.7,4.3-11c0-1.7-1.6-3.6-3.1-4.4
	C66.2,35.1,65.7,34.9,65.1,34.9z"/>
<path class="st9" d="M65.1,33.9c-3.4-0.3-4.8,4.1-6.4,6.5c-2,2.9-3.4,6.7-5.1,9.7c-1.2,2.1-3.5,6.7-6.3,7c-3.4,0.5-6.6-4.4-9.2-6
	c-3.7-2.2-8.9-0.2-7.8,4.9c1.3,6,7.2,7.8,12,10.3c12.5,6.6,18.6-7.7,23.3-16.5c1.6-2.9,4.3-7.7,4.3-11c0-1.7-1.6-3.6-3.1-4.4
	C66.2,34.1,65.7,33.9,65.1,33.9z"/>
<path class="st10" d="M65.1,32.9c-3.4-0.3-4.8,4.1-6.4,6.5c-2,2.9-3.4,6.7-5.1,9.7c-1.2,2.1-3.5,6.7-6.3,7c-3.4,0.5-6.6-4.4-9.2-6
	c-3.7-2.2-8.9-0.2-7.8,4.9c1.3,6,7.2,7.8,12,10.3c12.5,6.6,18.6-7.7,23.3-16.5c1.6-2.9,4.3-7.7,4.3-11c0-1.7-1.6-3.6-3.1-4.4
	C66.2,33.1,65.7,32.9,65.1,32.9z"/>
</svg>
