<?xml version="1.0" encoding="utf-8"?>
<!-- Generator: Adobe Illustrator 25.2.3, SVG Export Plug-In . SVG Version: 6.00 Build 0)  -->
<svg version="1.1" id="圖層_1" xmlns="http://www.w3.org/2000/svg" xmlns:xlink="http://www.w3.org/1999/xlink" x="0px" y="0px"
	 viewBox="0 0 100 100" style="enable-background:new 0 0 100 100;" xml:space="preserve">
<style type="text/css">
	.st0{fill:url(#SVGID_1_);enable-background:new    ;}
	.st1{fill:#7C0000;}
	.st2{fill:url(#SVGID_2_);enable-background:new    ;}
	.st3{fill:url(#SVGID_3_);}
	.st4{fill:url(#SVGID_4_);}
	.st5{fill:url(#SVGID_5_);}
	.st6{fill:url(#SVGID_6_);}
	.st7{fill:url(#SVGID_7_);}
	.st8{fill:url(#SVGID_8_);}
</style>
<g>
	<radialGradient id="SVGID_1_" cx="50" cy="50" r="45.2769" gradientUnits="userSpaceOnUse">
		<stop  offset="0" style="stop-color:#F14D00"/>
		<stop  offset="1" style="stop-color:#AE0000"/>
	</radialGradient>
	<path class="st0" d="M82,100H18c-4.4,0-8-3.6-8-8V8c0-4.4,3.6-8,8-8h64c4.4,0,8,3.6,8,8v84C90,96.4,86.4,100,82,100z"/>
	<path class="st1" d="M90,20c0,0,0,14-40,14S10,20,10,20V10c0-4.4,3.6-8,8-8h64c4.4,0,8,3.6,8,8V20z"/>
	<radialGradient id="SVGID_2_" cx="50" cy="16" r="30.4631" gradientUnits="userSpaceOnUse">
		<stop  offset="0" style="stop-color:#F14D00"/>
		<stop  offset="1" style="stop-color:#AE0000"/>
	</radialGradient>
	<path class="st2" d="M90,20c0,0,0,12-40,12S10,20,10,20V8c0-4.4,3.6-8,8-8h64c4.4,0,8,3.6,8,8V20z"/>
	<g>
		<path class="st1" d="M40.7,33.5c0-5.2,4.2-9.3,9.3-9.3s9.3,4.2,9.3,9.3s-4.2,9.3-9.3,9.3S40.7,38.6,40.7,33.5z"/>
		
			<radialGradient id="SVGID_3_" cx="-1902.7231" cy="445.7656" r="0.1867" gradientTransform="matrix(94.4433 0 0 94.4433 179749.375 -42076.4375)" gradientUnits="userSpaceOnUse">
			<stop  offset="0" style="stop-color:#FDFB45"/>
			<stop  offset="0.4156" style="stop-color:#BB6000"/>
			<stop  offset="0.734" style="stop-color:#FDFB45"/>
			<stop  offset="0.9997" style="stop-color:#BB6000"/>
		</radialGradient>
		<path class="st3" d="M40.7,31.5c0-5.2,4.2-9.3,9.3-9.3s9.3,4.2,9.3,9.3s-4.2,9.3-9.3,9.3S40.7,36.6,40.7,31.5z"/>
		
			<radialGradient id="SVGID_4_" cx="-1903.0773" cy="446.312" r="0.1867" gradientTransform="matrix(89.7211 0 0 89.7211 170796.1094 -40020.0508)" gradientUnits="userSpaceOnUse">
			<stop  offset="0" style="stop-color:#FDFB45"/>
			<stop  offset="1" style="stop-color:#FF9600"/>
		</radialGradient>
		<path class="st4" d="M41.1,31.5c0-4.9,4-8.9,8.9-8.9s8.9,4,8.9,8.9s-4,8.9-8.9,8.9S41.1,36.4,41.1,31.5z"/>
		
			<radialGradient id="SVGID_5_" cx="-1905.6063" cy="450.2149" r="0.1867" gradientTransform="matrix(66.1103 0 0 66.1103 126030.1406 -29738.2031)" gradientUnits="userSpaceOnUse">
			<stop  offset="0" style="stop-color:#E18400"/>
			<stop  offset="0.177" style="stop-color:#E18601"/>
			<stop  offset="0.2408" style="stop-color:#E38D05"/>
			<stop  offset="0.2863" style="stop-color:#E6980C"/>
			<stop  offset="0.3231" style="stop-color:#EAA916"/>
			<stop  offset="0.3545" style="stop-color:#EFBF22"/>
			<stop  offset="0.3819" style="stop-color:#F5DA32"/>
			<stop  offset="0.4065" style="stop-color:#FDF944"/>
			<stop  offset="0.4077" style="stop-color:#FDFB45"/>
			<stop  offset="0.4951" style="stop-color:#FDF943"/>
			<stop  offset="0.5311" style="stop-color:#FDF23D"/>
			<stop  offset="0.5575" style="stop-color:#FEE633"/>
			<stop  offset="0.5794" style="stop-color:#FED425"/>
			<stop  offset="0.5981" style="stop-color:#FEBE12"/>
			<stop  offset="0.6116" style="stop-color:#FFA800"/>
			<stop  offset="0.9338" style="stop-color:#FFE300"/>
			<stop  offset="1" style="stop-color:#FFA800"/>
		</radialGradient>
		<path class="st5" d="M43.5,31.5c0-3.6,2.9-6.5,6.5-6.5s6.5,2.9,6.5,6.5S53.6,38,50,38S43.5,35.1,43.5,31.5z"/>
		
			<radialGradient id="SVGID_6_" cx="-1906.1887" cy="451.1136" r="0.1867" gradientTransform="matrix(62.3326 0 0 62.3326 118867.6406 -28093.1191)" gradientUnits="userSpaceOnUse">
			<stop  offset="0" style="stop-color:#FFE300"/>
			<stop  offset="1" style="stop-color:#FFA800"/>
		</radialGradient>
		<path class="st6" d="M43.8,31.5c0-3.4,2.8-6.2,6.2-6.2s6.2,2.8,6.2,6.2s-2.8,6.2-6.2,6.2S43.8,34.9,43.8,31.5z"/>
		
			<radialGradient id="SVGID_7_" cx="-1906.1887" cy="451.1136" r="0.1867" gradientTransform="matrix(62.3326 0 0 62.3326 118867.6406 -28093.1191)" gradientUnits="userSpaceOnUse">
			<stop  offset="0" style="stop-color:#FFE300"/>
			<stop  offset="1" style="stop-color:#FFA800"/>
		</radialGradient>
		<path class="st7" d="M43.8,31.5c0-3.4,2.8-6.2,6.2-6.2s6.2,2.8,6.2,6.2s-2.8,6.2-6.2,6.2S43.8,34.9,43.8,31.5z"/>
		
			<radialGradient id="SVGID_8_" cx="-1906.1887" cy="451.1136" r="0.1867" gradientTransform="matrix(62.3326 0 0 62.3326 118867.6406 -28093.1191)" gradientUnits="userSpaceOnUse">
			<stop  offset="0" style="stop-color:#FFE300"/>
			<stop  offset="9.576999e-02" style="stop-color:#FFD900"/>
			<stop  offset="0.4736" style="stop-color:#FFB900"/>
			<stop  offset="0.7885" style="stop-color:#FFA400"/>
			<stop  offset="1" style="stop-color:#FF9D00"/>
		</radialGradient>
		<path class="st8" d="M43.8,31.5c0-3.4,2.8-6.2,6.2-6.2s6.2,2.8,6.2,6.2s-2.8,6.2-6.2,6.2S43.8,34.9,43.8,31.5z"/>
	</g>
</g>
</svg>
