<svg id="圖層_1" data-name="圖層 1" xmlns="http://www.w3.org/2000/svg" viewBox="0 0 139.31 37.89"><defs><style>.cls-1{fill-rule:evenodd;}</style></defs><path class="cls-1" d="M139.18,16.82c-.45.42-.63.37-.76,0h0c-.1,0-.1,1.07-.07.42,0,.14,0,.28,0,.41a1.82,1.82,0,0,1,0,.41s0,.09,0,.23,0,.33,0,.49a1.65,1.65,0,0,0,0,.28c0-.16.06-.21.09-.23s.31-.1.76,0,.8.33-.08.4a.59.59,0,0,1-.3.09c-.22,0-.42.05-.33.43.22.1.2-.16-.29-.33a2.06,2.06,0,0,1-1.43.14l.21.16c1,.06.51.34.51.4l1.46.62a22.21,22.21,0,0,0-2.42-.14c0,.15.13.28.34.4s.65-.16.51-.23c.07.35.27.3.21.48a4.51,4.51,0,0,0,1.44-.1c-.92.18-1,.31-1.14.42a2.33,2.33,0,0,0,.5-.44l0,.07s-.05.11.54.18c-.71.16-.8.36-.93,1.09-.13-.32-.26-.12-.36,0l-.19.25c0-.06-.43,0-.66.07h0a1.89,1.89,0,0,0,1.39-.3c.28.5.07.65,0,.88a2.44,2.44,0,0,1-.37.57c-.08-.61-.8-.73-1.61-.76h-.25a4.85,4.85,0,0,1-.59.26c.14,0-.15,0-.22.06a2.76,2.76,0,0,0-.14.83s0,.09,0,.14c.17-.41.35-.24.52-.07.37.35.68.71.92,1l.28.34a.85.85,0,0,1,.1.24,4.21,4.21,0,0,0-1.45-.62.48.48,0,0,1,.28.24.89.89,0,0,1,.06.42c0,.32-.2.73-.26,1.17a2.63,2.63,0,0,0-.67.66,8.6,8.6,0,0,1-.58.64c-.19.21-.43.68-.64.58-.11.09-.21.18.58.26-1,.08-1.11.16-1.2.23l.21-.18c0-.18-.43,0-.11.21-1.11.25-1.57.59-1.67.85.14-.14.08-.21.3-.38a1.18,1.18,0,0,0-.75.44,1,1,0,0,0-.13.54,2.7,2.7,0,0,1,0,.28.66.66,0,0,1-.16.26.88.88,0,0,1-.92.39c.8-.3.85-.53.9-.7s-.1-.26-.08.49c-.34-.64-.61-.45-.88-.26.58.2-.6.73-.86.58-.26.18,0,.35-.51.48-.05.14.54.26.42.57a1.64,1.64,0,0,0-1,.07.79.79,0,0,1-.71-.07s-.12.1-.31.23-.44.32-.71.49l-.75.49-.36.21c.12-.14,0-.37-.8-.12a5.66,5.66,0,0,0,1.08-.45c.3-.18.57-.36.83-.53a5.65,5.65,0,0,1,.74-.43c.26.35.55-.17.88-.18-.56-.34-1.35-.28-.83-.85a3.26,3.26,0,0,0-1.17.49c.23.16-.44.32-.65,1.28-.2-.66-.39-.51,0-.35a1.88,1.88,0,0,0-1.08.44,18.36,18.36,0,0,1-2,1.67l-.14,0c-.08,0-.21,0,0,.06-.61,0-1,.1-1.41.16s-.79.8-1.09.56c-.3.37-.5-.35-.5-.35l0,.21-.46-.18c-.22.35-.44-.18-.44-.18-.28.18,0,.32-.56.29-.1,0,0-.11,0,.17a.49.49,0,0,0-.65-.12c-.15-.12-.14,0-.06-.44a3,3,0,0,1,.41-.55l1,.11c.21-.22.34-.42.24-.55-.34.08-.69.4-1,.23,0,.07-.12.14-.18.21l-.31,0,.22-.11-.45.08.23,0c.56.15-.56.3-.83.44s-.15.28-.65.41c-.31.24-.31.44.44.5h-1.93c-.46.18-.8.32-1.07,1.31.12-.79-.5-.73-.74-.66s.32.13-.85.21l-1.48.31c.47-.16.5-.36,0-.46a4,4,0,0,1-1.54.21,10.18,10.18,0,0,1-1.6-.17l-.36-.06-.31-.06a1.26,1.26,0,0,0-.55-.09c-.33.82-.57,0-.66.11-1.46.12-.61.44-1.53.58,0-.06.13-.17-.14-.18l-1.1.47c-.35-.23,1-.35-.22-.51-2.12.27-3.36,1-5.13.29-2.51.08,1.08.73-.53.65a5.62,5.62,0,0,0-2.43-.7c-.7.65-.61.44-1.8.57l.08-.45c-1.1,0-2,.65-2-.25a5.19,5.19,0,0,1-2,.09c-1.68.65,1.22.93,2.12,1.11-2.15-.34-3.28-.14-4.22-.69l1.45.71c-3.1-1.41-2.94-.19-4.38-1.16,1.07,0,2.34-.21,1.71-.46l-1.53.23c-.19-.12.87-.08.17-.22a5.93,5.93,0,0,0-1.51.49l.21,0-3,.07c.31,0,.31-.15-.12-.16l-1.82.24c.56-.12,0-.26-.83-.33-2.35-.14-1.88,1-3.36.56-.08,0,0,0,.23,0l-.93-.2c-.2,1-5.52.27-5.72,1.08-1.34-.4-.1-.24,1.62-.7l-1.42-.11c.57-.21,1.06.38,1.67-.23-1.86-.41-3.62.73-4.63.36-.71-.14.56-.73-1.47-.57-2.86.19.55.71-1.17.83l-1.25.15c-2.2-.27-3.84-.62-5.7-.23-.42.41-.62-.36-.73-.3-2-.22-4.13.49-5.62.33.34-.11-.85-.32-1,.33l-2.69-.46c1.19-.14,1.14-.43,1.35-.71-.33,0-1.23.19-1,.23-.46-.1-.11-.21-.55-.34l-2.82,1a.7.7,0,0,1,.76-.48,5.82,5.82,0,0,0-2.75.79c-.4-1,0-1.06,0-1.17.84,1.07,1.32,0,1.76-.17-1.94.05-.48-.07-1.42-.28-1.37,0-1.93.4-1.57.64a5.09,5.09,0,0,0-3.63.65l.53-.94-1.68.13,1.18-.48a4.79,4.79,0,0,0-1.31,0c-.24,0-.32.13-.16.21a6,6,0,0,1-.75.22,6.17,6.17,0,0,1-1.62,0l0-.35c-.32,0-.6.07,0,.13a8.83,8.83,0,0,0-1.57.15,2.17,2.17,0,0,1-.62,0,1.36,1.36,0,0,1-.63-.2c-.66.05-.17.22.14.35s.39.92-1.14.13c.17-.06-.28-.12-.46-.17l-.59-.18c-.43-.12-.9-.22-1.29-.32s-.39.13,0,.26c.53.11.69.2,1,.24l-.6-.06c-.23,0-.44-.07-.63-.11a6.09,6.09,0,0,1-.91-.24c-.47-.18-.71-.2-.93-.55a3,3,0,0,0-.34-.25c-.13-.08.48-.16-.47-.23a4.22,4.22,0,0,0-.77-.2c-.32.83-.71.2-1.21-.18.52.26.51.35,0,.46-.08.06-.1.12.1.21.79,0,.25.1.47.17a2.36,2.36,0,0,1,.91.39,5.9,5.9,0,0,0-1.11-.41c-.34-.11-.66-.25-1-.38s-.63-.27-1,.06c-.18-.49-.36-.53-.55-.56a5.69,5.69,0,0,0-.63-.08l.68,0,.67-.07a9.51,9.51,0,0,0-1.56-.21l.45-.26c.49,0-.55,0-.79-.05a.5.5,0,0,0-.66.3c-.2-.51-.39-.58-.56-.65s0-.14-.49-.21a5.58,5.58,0,0,0-.93-.36A3.12,3.12,0,0,0,12,34.17c.7-.11.39.18-.12-.36-.51-.16-1.25-.34-1.37-.57a7.68,7.68,0,0,1,2.57.82,6.21,6.21,0,0,0,1.11.34,1.27,1.27,0,0,0,.81,0c-.41.15-1.29.5-1.65-.7.25,0,.56.1.85.13a3.29,3.29,0,0,0,.68,0c-.19-.12-.4-.22-.1-.31a5,5,0,0,1-1.1-.25c0-.14-.81.38-1.21-.33a20.75,20.75,0,0,1-2.25-.49l.33.13a4.86,4.86,0,0,0,1.07.29c-.1.28.18.2.38.28l.34.12a1.12,1.12,0,0,1-1,0,1.24,1.24,0,0,0-1.16.11,1.82,1.82,0,0,0-1.21-1.09c-.24-.09-.46-.18.21,0-1.06-.39-1.23-.5-1.34-.64.19.12.28.09,1.27.2-1-.14-1.25-.27-1.4-.41s-.28-.28-.37.2c-.18-.86-.24-1.1-.26-1.31s0-.41,0-.57a.54.54,0,0,0-.19-.44,4,4,0,0,0-1.17-.77c.1-.21-.82-.3-.85-.07-.17-.09-.13,0,0,.11s.57.33.56.53c.18.2.35.4.34.53s-.22.18-.75.1c.12-.3.07-.53-.13-.4a1.79,1.79,0,0,0-.85-1c-.36-.23,0-.49-1-.82-.17-.16-.29-.35-.39-.24a6.54,6.54,0,0,1-.19-1c.54.34.68.18.8,0s.22.26.65,0c-.33-.4,0-.59-.79-.73-.21-.13-.44-.21-.13-.36l-.28-.32c-.81-.48-1.09-.53-.53-.65-.93-.06-1-.14-1.19-.31s-.38-.43.12-.87c-.47.28-.33.09-.2.58.13-.9.26-1.12.49-.91,0-.12.66-.23.36-.35s-.51-.23-.56-.34a2,2,0,0,0-.19-.31,1.48,1.48,0,0,0-.22-.29l.08.07a5,5,0,0,1-.08-.58,2.41,2.41,0,0,1,0-.4h0c-.07-.14-.17-.27-.22-.4,0,.4-.11-.25-.14-.37s-.07-.25.72-.37c-.7-.25-.81-.5-.71-.74s.15-.46.62-.56c-.47-.4-.66-.69-.62-1s0-.6.71-.9c-.79-.16-.76-.31-.72-.46a3.5,3.5,0,0,1,.14-.46A9.2,9.2,0,0,1,1,14.11c-.07,0-.13.27-.19-.2-.13-.16-.27-.32.2-.09-.5-.35-.27-.56-.12-.7.15.11.26-.21,1.19-.26-.68,0-.53-.09-.31-.17l.55-.89s-.21.38-.41.34l-.28.24,0,.06a3.17,3.17,0,0,0,.49-.85c.09-.13,1-.27.31-.4h0c0,.2.08-.38.19-.54a1.8,1.8,0,0,1,.39-.45c1-.26.68-.48,1-.66s.65-.35.85.17c.2-.86.25-1.05.13-1.29.53-.07.73,0,.75.09s-.16.26-.34.42c.06.15-.36.28-.49.39.67-.06,2-.48,2.15-1,0-.12,0-.24,0,.31,0-.87.08-1.06.26-1.27a2.57,2.57,0,0,1,.37-.33c.15-.11.36-.22,1.4-.33-1,.09-1.08.07-1.27.16.11-.11.28-.2,1.34-.28-.67-.09-.45-.16-.21-.23a3,3,0,0,0,1.21-.59,3,3,0,0,0,1.16-.2,1.79,1.79,0,0,1,.47-.1l.53-.19,1.11-.35,1.06-.3.15,0a2.06,2.06,0,0,0-.48,0A9,9,0,0,0,13,4.91a9.23,9.23,0,0,1-2.57.67c.12-.19.86-.34,1.37-.46.51.33.82-.21.12-.3a3.63,3.63,0,0,0,1.17-.05,6.25,6.25,0,0,0,.93-.29c.44-.05.32-.12.49-.17s.36-.11.56-.16.42-.09.66.63c.24-.3,1.28-.43.79-.43l-.45-.57a13.35,13.35,0,0,0,1.56-.17L17,3.55l-.68,0a5.77,5.77,0,0,0,.63-.07,4.86,4.86,0,0,0,.55-.1c.34-.08.65-.2,1,.51.31-.92.63-1,1-1.12a6,6,0,0,1,1.11-.18l-.91.17c-.22,0,.32.09-.47.13-.2.07-.18.35-.1.8.54-.54.55-.47,0-.26.5,0,.89-.09,1.21-.14l.13,0,.2-.05a2.22,2.22,0,0,0,.91-.47c.19,0,.05.14-.05.22l.05,0a2.77,2.77,0,0,0,.34-.2,3.2,3.2,0,0,1,.93-.45,7,7,0,0,1,.91-.19c.19.66.4.33.63.09a1.53,1.53,0,0,1,.6-.23c-.32,0-.48.79-1,.19-.34.11-.46.21,0,.22l1.29-.26c.21.6.42.1.59-.15.18,0,.63-.09.46-.14,1.53-.08,1.44,0,1.14.11-.31.53-.8.24-.14.28.22-.1.43.49.63.38s.41.08.62-.5a11.33,11.33,0,0,0,1.57.12c-.62.05-.34.09,0,.11l0,.14c.84-.5,1.33-.49,1.62-.23s.4-.11.75,0c-.16.07-.08.14.16.18a6.37,6.37,0,0,0,1.31,0l-1.18-.39,1.68.83-.53-1a13.41,13.41,0,0,0,3.63.09c-.36.6.2.51,1.57.52.94-.17-.52.62,1.42-.23a1.72,1.72,0,0,0-1.76.06c-.09-.29-.44-.38,0-.47a13.55,13.55,0,0,1,2.75,0c-.1,0-.6,0-.76.07l2.82.39c.44.28.09-.19.55-.28-.24,0,.66.48,1,.72-.21-.76-.16-1-1.35-1.1l2.69.25c.18-.1,1.37-.27,1-.36,1.49-.13,3.65.45,5.62.27a3.29,3.29,0,0,0,.73.12,30,30,0,0,1,5.7,0l1.25-.41c1.72.09-1.69.52,1.17.77,2,0,.76-.45,1.47-.56A12.22,12.22,0,0,0,68,1.79c-.61-.08-1.1,0-1.67-.05l1.42-.22c-1.72-.38-3-.25-1.62-.37.2.59,5.52.63,5.72.67l.93-.16c-.27,0-.31,0-.23,0,1.48-.38,1,.57,3.36.45.82.63,1.39-.17.83-.26l1.82.76c.43-.13.43-.67.12-.7l3,.06-.21,0c.17.93,1.07.32,1.51.4.7-.11-.36-.08-.17-.18l1.53.19c.63-.2-.64-.4-1.71-.37,1.44-.8,1.28.2,4.38-.27l-1.45-.1c.94-.45,2.07-.28,4.22,0-.9-.47-3.8.09-2.12.29a2.81,2.81,0,0,1,2,.45c0-.66.89-.59,2-.58l-.08-.37a6.16,6.16,0,0,1,1.8.47,6.66,6.66,0,0,0,2.43-.57c1.61-.06-2,.46.53.53a25.55,25.55,0,0,1,5.13.23c1.23.57-.13-.22.22-.33l1.1,1.18c.27-.07.18-1,.14-1,.66.41.42.24.77.36l.37-.09v.17c.11,0,.72,0,.4,0,.09.1.33.11.66.08a1.46,1.46,0,0,0,.55-.07l.31-.05.36,0c.3,0,.62-.07,1.32-.1-.67-.09.33.63.47,0,1.42.19.77-.08,1,0-.37,0,0,.06.37.16.51-.08.48-.24,0-.37l1.48.25c1.17.07.61.12.85.17h0c.28,0,1.18-.08.54-.15.3.2.18.25.69.27-.67,0-.6,0-.51.06l.34.11.24,0a.26.26,0,0,0-.15.06l.64.2h1.93c-.75.05-.75.21-.44.4.92.09.32.18.53.27l.52.12.66.18a2.12,2.12,0,0,1-.33-.36c-.08-.13-.09-.26.06-.35a4.13,4.13,0,0,0,.65.21c-.09-.09-.14-.15,0-.18.51,0,.28.1.56.24l.44-.15.46-.14,0,.17.5,0,1.09.12c.4,0,.8.09,1.41.13-.17,0,0,0,0,.05l.14,0a16.77,16.77,0,0,1,1.89,1.26c.41.16,1.12.3.85.41a4,4,0,0,0,1.13.45c-.58-.52-.52-.48-.22-.33a4.35,4.35,0,0,0,.59.22,1.11,1.11,0,0,0,.65,0h0a4.13,4.13,0,0,1-.74-.35c-.26-.13-.53.6-.83-.43a7.58,7.58,0,0,0-1.08-.36c.85.2.92,0,.8-.1l.36.18c.21.1.48.24.75.91a.44.44,0,0,1,.71-.12l.31.18a1,1,0,0,1,.71-.06c.28.06.6.18,1,.26.12.06-.47.15-.42.26.52.11.25.25.51.4s1.44.3.86.46a6.55,6.55,0,0,0,.88.45c0-.05.13-.13.08-.26a1.59,1.59,0,0,0-.9-.57,1.77,1.77,0,0,1,.92.32c.08.07.13.48.16.21v0c.24.73.36.12.45.35.41.18.87.4.22,1,.08.27.14-.4.25-.38-.22-.14-.16-.19-.3-.31.1.56.56.49,1.67.69-.32.2.08.31.11.17l-.21-.14c.09.06.2.12,1.2.18-.79.07-.69.14-.58.21.21.88.45.3.64.47a7.45,7.45,0,0,1,.58.53,2.84,2.84,0,0,0,.67.53c0,.31.17,1,.22.83l.4.24c.09,0,.32.11.27.16a3.64,3.64,0,0,0,.48-.16l-.1.1c0,.05-.11.11-.18.18l.26.13c.23.51.67,1,.66.34,0,0,0,.61.1-.1.11-.05.19.79.19.79-.07-.81-.1-.76-.14-.7a.43.43,0,0,1,0,.07,3.72,3.72,0,0,1,.36.94c.13,0,.22.25.93.44-.59.1-.56.17-.54.23,0,.65,0,.43,0,.43,0-.41.46-.52-.23-.63,0,.14,0,.8,0,.5-.07-.06-.3-.13-.56.48,0-.59-.14-.51-.18-.25.32-.11-.37-.22-.61-.34-.06,0-.14.68-.2.37,0,.17-.06.4-.07-.39a6.88,6.88,0,0,1,.68.34,1.69,1.69,0,0,1,.3.21l.28.25c.11.35.27.25,1.27.46a4.73,4.73,0,0,0-1.55-.06c0,.3-.35.44-.74.5a19.49,19.49,0,0,0,2.21-.1l-1.2.77c.09-.36.17-.29.23-.21s-.13-.11-.23.24l-1,.15a2.61,2.61,0,0,1,1.64.2c-.11-.12,0-.33-.43-.59.35.22.12-.75.51-.54-.09.47.11.49.33.52a.53.53,0,0,1,.3.12C140,16.41,139.66,16.56,139.18,16.82ZM86,1.85c.47.32.83.79,1.53.07C87.16,1.87,86.34,1.68,86,1.85Zm0,36c.3,1,1.12,0,1.53-.1C86.87,37.63,86.51,37.44,86,37.84Zm31.79-34-.8.07a3.6,3.6,0,0,1,.43,1c.19-.77.4-.71.61-.65C118.09,4.12,118,4.43,117.83,3.85Zm1.68,0a5,5,0,0,0-.81,0c.17,0,.36.08.58.11a2.47,2.47,0,0,0,.72.75C119.9,4.15,119.73,3.9,119.51,3.87Zm-.23,31.38a3.75,3.75,0,0,0-.58.15,4.88,4.88,0,0,0,.81,0,1,1,0,0,0,.49-.19A6.41,6.41,0,0,0,119.28,35.25Zm7.34-29.56c.32.12.45.2.5.36.63-.13.23-.17.34-.23A2.69,2.69,0,0,1,126.62,5.69Zm10.74,7.74a.76.76,0,0,0,.22-.14.21.21,0,0,0-.25.08A.33.33,0,0,0,137.36,13.43Zm-2.05,9.86c.73,0,.25,0-.14,0l0,.1C135.28,23.35,135.92,23.32,135.31,23.29Zm-.26-9.92a2.36,2.36,0,0,1,.12.28h.58Zm.56-1.77s0,.07,0,.09a.43.43,0,0,1-.28.2,4.89,4.89,0,0,0,.53-.12Zm1.16.86c-.16-.13-.36-.28-.39.25-.36-.52-.56-.34-.79-.16l.15.06a3.59,3.59,0,0,0,.41.11Zm1.38,5.31-.13-.15-.05-.06a.67.67,0,0,1,0,.2,1,1,0,0,1,0,.18c0,.31,0,.81,0,.15,0,.09,0,.14,0,.22,0-.25,0-.17,0-.09a1.07,1.07,0,0,1,0,.25l.05-.08.13-.19c.27-.09.8.43.14-.11C139,17.92,138.42,17.85,138.15,17.77Zm-.46,6.32,0,0s0,0,0,0Zm0,1.17-.28-.16c.38.41-.4-.22-.64-.35-.46-.25-.93-.48-.93-.48l.93-.08c.95-.05.92-.1.92-.1a1.41,1.41,0,0,0-.3.5C137.36,24.77,137.45,25.2,137.69,25.26Zm-21.19,11a.64.64,0,0,0,.3.15C116.41,36.4,116.37,36.33,116.5,36.25Zm-1,.32,1.31,0A8.94,8.94,0,0,1,115.5,36.57ZM81.43,37.76l-.33.14C80.92,37.89,81,37.84,81.43,37.76Zm-4.68.12a2.73,2.73,0,0,0-.6.17ZM53,38.21a.17.17,0,0,1,.06-.06h.07Zm-.7.32.7-.32C52.91,38.36,53.39,38.52,52.3,38.53ZM13.75,33.61c.18,0-.47,0-.45.06C12.84,33.59,12.6,33.52,13.75,33.61ZM53,1.55l-.7-.26C53.39,1.29,52.91,1.42,53,1.55Zm.13,0h-.07L53,1.55Zm23.62.23-.6-.07A4.31,4.31,0,0,1,76.75,1.82Zm4.35,0,.33.11C81,1.85,80.92,1.8,81.1,1.8Zm35.71,1.09H115.5A10.94,10.94,0,0,1,116.81,2.89Zm0,.75c-.16.27-.23-.55-.3-.5S116.41,3.62,116.8,3.64ZM90.73,1.16l.09.09a2.3,2.3,0,0,1-1,.12Zm-15.41.28h.26l-.49.34Zm-12.94.11c.4-.11,1.45.31,1.29-.5C62.76,1.09,62.92,1.39,62.38,1.55Zm1.29,37.27a8.08,8.08,0,0,1-1.29,0C62.92,38.41,62.76,38.78,63.67,38.82Zm11.65-.48-.23-.42.49.42Zm15.5.23-.09.11-.89-.26A2,2,0,0,1,90.82,38.57Z" transform="translate(-0.35 -1.05)"/></svg>